<svg width="1200" height="300" viewBox="0 0 1200 300" fill="none" xmlns="http://www.w3.org/2000/svg">
<rect width="1200" height="300" rx="70" fill="#37404C"/>
<rect x="59" y="50" width="200" height="200" rx="25" fill="#37404C"/>
<path fill-rule="evenodd" clip-rule="evenodd" d="M110.906 99.1818C117.028 92.7348 124.048 88.4066 131.952 86.1793C137.376 84.65 141.031 79.7346 141.031 74.2566C141.031 65.9505 132.81 59.8943 124.586 62.221C118.328 63.9875 112.313 66.5921 106.547 70.0437C94.6725 77.1458 85.2745 86.6266 78.3506 98.4837C75.3826 103.569 73.0576 108.78 71.3662 114.116C68.5519 123.007 75.2545 132.031 84.8458 132.031C91.3457 132.031 97.0348 127.737 98.5561 121.611C100.662 113.131 104.767 105.649 110.906 99.1818Z" fill="#E5007D"/>
<path fill-rule="evenodd" clip-rule="evenodd" d="M215.152 188.815C210.762 197.038 204.699 203.497 196.967 208.202C193.555 210.28 190.011 211.876 186.334 213.007C180.782 214.712 176.969 219.661 176.969 225.325C176.969 233.88 185.391 240.159 193.834 237.769C199.997 236.028 205.895 233.493 211.522 230.159C223.365 223.147 232.717 213.719 239.57 201.876C242.661 196.54 245.048 191.012 246.742 185.29C249.314 176.594 242.347 167.969 233.044 167.969C226.869 167.969 221.51 171.876 219.586 177.521C218.28 181.354 217.064 185.233 215.152 188.815Z" fill="#E5007D"/>
<path fill-rule="evenodd" clip-rule="evenodd" d="M110.888 200.07C104.948 193.738 100.899 186.48 98.7291 178.314C97.109 172.224 91.4421 167.969 84.9547 167.969C75.2971 167.969 68.5416 177.053 71.3669 186.008C73.0546 191.364 75.3693 196.58 78.3135 201.653C85.2415 213.592 94.645 223.083 106.527 230.119C112.182 233.469 118.075 236.013 124.203 237.763C132.616 240.164 141.031 233.917 141.031 225.412C141.031 219.807 137.297 214.802 131.765 213.197C123.928 210.924 116.965 206.554 110.888 200.07Z" fill="white"/>
<path fill-rule="evenodd" clip-rule="evenodd" d="M197.027 91.0926C204.544 95.6328 210.487 101.843 214.851 109.72C216.957 113.522 218.553 117.514 219.642 121.697C221.217 127.765 226.794 132.031 233.225 132.031C242.613 132.031 249.391 123.22 246.678 114.477C245.898 111.967 244.979 109.486 243.918 107.033C239.907 97.7557 234.342 89.5354 227.227 82.3675C220.112 75.1996 211.836 69.5527 202.401 65.429C199.568 64.1932 196.682 63.1408 193.749 62.2784C185.41 59.8228 176.969 65.7458 176.969 74.2219V74.2875C176.969 79.8009 180.68 84.6422 186.099 86.2491C189.889 87.3717 193.532 88.9832 197.027 91.0926Z" fill="white"/>
<g clip-path="url(#clip0_2848_248)">
<path d="M432.524 96.0603L387.279 229H356.558L311.5 96.0603H339.987L364.937 175.191C365.433 176.556 366.116 179.101 366.985 182.825C367.978 186.425 368.971 190.272 369.964 194.369C370.957 198.341 371.639 201.692 372.012 204.423C372.384 201.692 373.005 198.341 373.874 194.369C374.867 190.272 375.86 186.425 376.853 182.825C377.846 179.101 378.528 176.556 378.901 175.191L404.036 96.0603H432.524ZM535.833 177.984C535.833 186.425 534.654 193.934 532.295 200.513C530.061 207.092 526.772 212.677 522.427 217.27C518.207 221.739 513.056 225.152 506.973 227.51C500.891 229.745 494.002 230.862 486.306 230.862C479.231 230.862 472.652 229.745 466.57 227.51C460.612 225.152 455.461 221.739 451.116 217.27C446.772 212.677 443.358 207.092 440.876 200.513C438.517 193.934 437.338 186.425 437.338 177.984C437.338 166.688 439.324 157.193 443.296 149.497C447.268 141.677 452.978 135.719 460.426 131.623C467.873 127.526 476.686 125.478 486.865 125.478C496.423 125.478 504.863 127.526 512.187 131.623C519.51 135.719 525.282 141.677 529.502 149.497C533.723 157.193 535.833 166.688 535.833 177.984ZM465.639 177.984C465.639 184.687 466.322 190.335 467.687 194.927C469.177 199.396 471.473 202.809 474.576 205.168C477.679 207.402 481.714 208.519 486.679 208.519C491.644 208.519 495.616 207.402 498.595 205.168C501.698 202.809 503.932 199.396 505.298 194.927C506.787 190.335 507.532 184.687 507.532 177.984C507.532 171.281 506.787 165.695 505.298 161.227C503.932 156.758 501.698 153.407 498.595 151.173C495.492 148.938 491.457 147.821 486.492 147.821C479.169 147.821 473.832 150.366 470.48 155.455C467.253 160.42 465.639 167.93 465.639 177.984ZM586.503 127.34V229H558.76V127.34H586.503ZM572.725 87.4956C576.821 87.4956 580.358 88.4886 583.337 90.4746C586.316 92.3365 587.806 95.8741 587.806 101.087C587.806 106.177 586.316 109.714 583.337 111.7C580.358 113.686 576.821 114.679 572.725 114.679C568.504 114.679 564.905 113.686 561.926 111.7C559.071 109.714 557.643 106.177 557.643 101.087C557.643 95.8741 559.071 92.3365 561.926 90.4746C564.905 88.4886 568.504 87.4956 572.725 87.4956ZM656.824 230.862C646.77 230.862 638.205 229.062 631.13 225.462C624.055 221.739 618.655 216.029 614.932 208.333C611.208 200.637 609.346 190.769 609.346 178.729C609.346 166.316 611.456 156.2 615.676 148.38C619.897 140.56 625.731 134.788 633.178 131.064C640.75 127.34 649.439 125.478 659.245 125.478C666.196 125.478 672.216 126.161 677.305 127.526C682.519 128.892 687.049 130.505 690.897 132.367L682.705 153.779C678.36 152.041 674.264 150.614 670.416 149.497C666.692 148.38 662.969 147.821 659.245 147.821C654.404 147.821 650.37 149 647.142 151.359C643.915 153.593 641.495 157.007 639.881 161.599C638.391 166.068 637.647 171.716 637.647 178.543C637.647 185.245 638.454 190.831 640.067 195.3C641.805 199.644 644.287 202.933 647.515 205.168C650.742 207.278 654.652 208.333 659.245 208.333C665.079 208.333 670.23 207.588 674.699 206.099C679.167 204.485 683.512 202.313 687.732 199.582V223.228C683.512 225.959 679.043 227.883 674.326 229C669.733 230.241 663.9 230.862 656.824 230.862ZM753.023 125.478C762.457 125.478 770.525 127.278 777.228 130.878C784.055 134.478 789.33 139.691 793.054 146.518C796.778 153.345 798.64 161.723 798.64 171.653V185.059H733.101C733.349 192.879 735.646 199.023 739.99 203.492C744.459 207.961 750.603 210.195 758.423 210.195C765.002 210.195 770.96 209.574 776.297 208.333C781.635 206.968 787.158 204.919 792.868 202.189V223.6C787.903 226.083 782.628 227.883 777.042 229C771.58 230.241 764.94 230.862 757.12 230.862C746.941 230.862 737.942 229 730.122 225.276C722.302 221.428 716.158 215.656 711.689 207.961C707.221 200.265 704.986 190.583 704.986 178.915C704.986 166.999 706.972 157.131 710.944 149.311C715.041 141.367 720.688 135.408 727.888 131.436C735.087 127.464 743.466 125.478 753.023 125.478ZM753.21 145.214C747.872 145.214 743.404 146.952 739.804 150.428C736.328 153.903 734.28 159.303 733.66 166.626H772.573C772.573 162.53 771.829 158.868 770.339 155.641C768.974 152.414 766.864 149.869 764.009 148.007C761.154 146.145 757.554 145.214 753.21 145.214Z" fill="white"/>
<path d="M985.622 229L975.94 197.348H927.531L917.849 229H887.5L934.42 95.5018H968.865L1015.97 229H985.622ZM959.556 142.794C958.935 140.684 958.128 138.015 957.135 134.788C956.142 131.561 955.149 128.271 954.156 124.92C953.163 121.568 952.356 118.651 951.736 116.169C951.115 118.651 950.246 121.755 949.129 125.478C948.136 129.078 947.143 132.554 946.15 135.905C945.281 139.132 944.598 141.429 944.102 142.794L934.606 173.702H969.237L959.556 142.794ZM1082.52 229H1022.01V212.988L1038.21 205.54V119.52L1022.01 112.073V96.0603H1082.52V112.073L1066.32 119.52V205.54L1082.52 212.988V229Z" fill="#E5007D"/>
</g>
<defs>
<clipPath id="clip0_2848_248">
<rect width="777" height="240" fill="white" transform="translate(311.5 30)"/>
</clipPath>
</defs>
</svg>
