<svg width="2400" height="1260" viewBox="0 0 2400 1260" fill="none" xmlns="http://www.w3.org/2000/svg">
<rect width="2400" height="1260" fill="#37404C"/>
<rect x="222.535" y="396.268" width="1954.93" height="488.732" rx="114.038" fill="#37404C"/>
<rect x="318.653" y="477.723" width="325.822" height="325.822" rx="40.7277" fill="#37404C"/>
<path fill-rule="evenodd" clip-rule="evenodd" d="M403.213 557.846C413.187 547.343 424.622 540.292 437.5 536.663C446.335 534.172 452.29 526.164 452.29 517.24C452.29 503.708 438.897 493.842 425.499 497.633C415.305 500.51 405.505 504.754 396.112 510.377C376.767 521.947 361.457 537.392 350.177 556.709C345.342 564.992 341.554 573.482 338.798 582.175C334.214 596.659 345.133 611.361 360.758 611.361C371.347 611.361 380.615 604.365 383.094 594.385C386.525 580.57 393.212 568.382 403.213 557.846Z" fill="#E5007D"/>
<path fill-rule="evenodd" clip-rule="evenodd" d="M573.041 703.868C565.889 717.264 556.011 727.787 543.415 735.452C537.857 738.837 532.084 741.438 526.094 743.279C517.049 746.057 510.836 754.119 510.836 763.346C510.836 777.284 524.557 787.513 538.312 783.619C548.352 780.783 557.961 776.654 567.127 771.221C586.421 759.799 601.656 744.44 612.821 725.146C617.856 716.454 621.744 707.448 624.504 698.125C628.695 683.959 617.345 669.907 602.189 669.907C592.13 669.907 583.399 676.272 580.265 685.469C578.137 691.713 576.157 698.033 573.041 703.868Z" fill="#E5007D"/>
<path fill-rule="evenodd" clip-rule="evenodd" d="M403.184 722.204C393.508 711.888 386.911 700.065 383.376 686.761C380.736 676.839 371.504 669.907 360.936 669.907C345.202 669.907 334.197 684.706 338.799 699.295C341.549 708.02 345.32 716.517 350.116 724.782C361.403 744.233 376.722 759.695 396.078 771.156C405.291 776.615 414.892 780.758 424.876 783.609C438.581 787.521 452.29 777.344 452.29 763.488C452.29 754.358 446.207 746.203 437.195 743.588C424.427 739.887 413.084 732.767 403.184 722.204Z" fill="white"/>
<path fill-rule="evenodd" clip-rule="evenodd" d="M543.513 544.668C555.76 552.064 565.441 562.182 572.551 575.013C575.982 581.207 578.582 587.712 580.356 594.525C582.922 604.411 592.007 611.361 602.484 611.361C617.778 611.361 628.819 597.007 624.4 582.763C623.13 578.674 621.633 574.633 619.904 570.636C613.37 555.523 604.303 542.131 592.712 530.454C581.121 518.776 567.639 509.577 552.269 502.859C547.652 500.846 542.952 499.131 538.173 497.726C524.588 493.726 510.836 503.375 510.836 517.183V517.29C510.836 526.272 516.882 534.159 525.71 536.777C531.884 538.606 537.82 541.231 543.513 544.668Z" fill="white"/>
<g clip-path="url(#clip0_2864_279)">
<g clip-path="url(#clip1_2864_279)">
<path d="M927.407 552.568L853.699 769.141H803.651L730.247 552.568H776.655L817.3 681.48C818.109 683.704 819.222 687.85 820.637 693.916C822.255 699.781 823.872 706.049 825.49 712.722C827.108 719.193 828.22 724.653 828.827 729.102C829.433 724.653 830.444 719.193 831.86 712.722C833.478 706.049 835.095 699.781 836.713 693.916C838.331 687.85 839.443 683.704 840.05 681.48L880.998 552.568H927.407ZM1095.71 686.03C1095.71 699.781 1093.79 712.015 1089.95 722.732C1086.31 733.45 1080.95 742.549 1073.87 750.031C1066.99 757.311 1058.6 762.872 1048.69 766.714C1038.79 770.354 1027.56 772.174 1015.02 772.174C1003.5 772.174 992.781 770.354 982.873 766.714C973.166 762.872 964.774 757.311 957.697 750.031C950.619 742.549 945.058 733.45 941.014 722.732C937.172 712.015 935.251 699.781 935.251 686.03C935.251 667.628 938.486 652.159 944.957 639.621C951.428 626.882 960.73 617.175 972.863 610.502C984.996 603.829 999.353 600.493 1015.93 600.493C1031.51 600.493 1045.26 603.829 1057.19 610.502C1069.12 617.175 1078.52 626.882 1085.4 639.621C1092.27 652.159 1095.71 667.628 1095.71 686.03ZM981.356 686.03C981.356 696.95 982.468 706.15 984.692 713.632C987.119 720.912 990.86 726.473 995.915 730.315C1000.97 733.955 1007.54 735.775 1015.63 735.775C1023.72 735.775 1030.19 733.955 1035.04 730.315C1040.1 726.473 1043.74 720.912 1045.96 713.632C1048.39 706.15 1049.6 696.95 1049.6 686.03C1049.6 675.11 1048.39 666.011 1045.96 658.731C1043.74 651.451 1040.1 645.991 1035.04 642.351C1029.99 638.711 1023.42 636.892 1015.33 636.892C1003.4 636.892 994.702 641.037 989.242 649.328C983.985 657.416 981.356 669.65 981.356 686.03ZM1178.26 603.526V769.141H1133.06V603.526H1178.26ZM1155.81 538.615C1162.48 538.615 1168.25 540.232 1173.1 543.468C1177.95 546.501 1180.38 552.264 1180.38 560.757C1180.38 569.048 1177.95 574.811 1173.1 578.047C1168.25 581.282 1162.48 582.9 1155.81 582.9C1148.93 582.9 1143.07 581.282 1138.22 578.047C1133.57 574.811 1131.24 569.048 1131.24 560.757C1131.24 552.264 1133.57 546.501 1138.22 543.468C1143.07 540.232 1148.93 538.615 1155.81 538.615ZM1292.82 772.174C1276.44 772.174 1262.48 769.242 1250.96 763.377C1239.43 757.311 1230.64 748.009 1224.57 735.472C1218.5 722.934 1215.47 706.858 1215.47 687.243C1215.47 667.022 1218.91 650.541 1225.78 637.801C1232.66 625.062 1242.16 615.659 1254.3 609.592C1266.63 603.526 1280.79 600.493 1296.76 600.493C1308.08 600.493 1317.89 601.605 1326.18 603.829C1334.68 606.054 1342.06 608.682 1348.33 611.716L1334.98 646.598C1327.9 643.767 1321.23 641.441 1314.96 639.621C1308.89 637.801 1302.83 636.892 1296.76 636.892C1288.87 636.892 1282.3 638.813 1277.04 642.655C1271.79 646.295 1267.84 651.855 1265.21 659.337C1262.79 666.617 1261.57 675.818 1261.57 686.94C1261.57 697.86 1262.89 706.959 1265.52 714.239C1268.35 721.317 1272.39 726.675 1277.65 730.315C1282.91 733.753 1289.28 735.472 1296.76 735.472C1306.26 735.472 1314.66 734.258 1321.94 731.832C1329.22 729.203 1336.29 725.664 1343.17 721.215V759.738C1336.29 764.186 1329.01 767.321 1321.33 769.141C1313.85 771.163 1304.34 772.174 1292.82 772.174ZM1449.54 600.493C1464.9 600.493 1478.05 603.425 1488.97 609.289C1500.09 615.153 1508.68 623.646 1514.75 634.768C1520.82 645.89 1523.85 659.54 1523.85 675.717V697.556H1417.08C1417.48 710.296 1421.23 720.306 1428.3 727.585C1435.58 734.865 1445.59 738.505 1458.33 738.505C1469.05 738.505 1478.76 737.494 1487.45 735.472C1496.15 733.247 1505.15 729.911 1514.45 725.462V760.344C1506.36 764.389 1497.76 767.321 1488.66 769.141C1479.77 771.163 1468.95 772.174 1456.21 772.174C1439.63 772.174 1424.97 769.141 1412.23 763.074C1399.49 756.805 1389.48 747.402 1382.2 734.865C1374.92 722.328 1371.28 706.555 1371.28 687.547C1371.28 668.134 1374.51 652.058 1380.98 639.318C1387.66 626.376 1396.86 616.67 1408.59 610.199C1420.32 603.728 1433.97 600.493 1449.54 600.493ZM1449.84 632.645C1441.14 632.645 1433.86 635.476 1428 641.138C1422.34 646.8 1419 655.596 1417.99 667.527H1481.38C1481.38 660.854 1480.17 654.889 1477.75 649.631C1475.52 644.373 1472.08 640.228 1467.43 637.195C1462.78 634.162 1456.92 632.645 1449.84 632.645Z" fill="white"/>
<path d="M1827.43 769.141L1811.65 717.576H1732.79L1717.02 769.141H1667.58L1744.01 551.658H1800.13L1876.87 769.141H1827.43ZM1784.96 628.702C1783.95 625.264 1782.64 620.916 1781.02 615.659C1779.4 610.401 1777.78 605.043 1776.17 599.583C1774.55 594.123 1773.23 589.371 1772.22 585.326C1771.21 589.371 1769.8 594.426 1767.98 600.493C1766.36 606.357 1764.74 612.019 1763.12 617.479C1761.71 622.736 1760.59 626.477 1759.79 628.702L1744.32 679.053H1800.73L1784.96 628.702ZM1985.29 769.141H1886.71V743.055L1913.09 730.922V590.786L1886.71 578.653V552.568H1985.29V578.653L1958.9 590.786V730.922L1985.29 743.055V769.141Z" fill="#E5007D"/>
</g>
</g>
<defs>
<clipPath id="clip0_2864_279">
<rect width="1436.87" height="390.986" fill="white" transform="translate(644.474 445.141)"/>
</clipPath>
<clipPath id="clip1_2864_279">
<rect width="1265.33" height="390.986" fill="white" transform="translate(730.247 445.141)"/>
</clipPath>
</defs>
</svg>
