<svg width="1389" height="2113" viewBox="0 0 1389 2113" fill="none" xmlns="http://www.w3.org/2000/svg">
<rect x="142.5" width="1104" height="1104" rx="138" fill="#37404C"/>
<path fill-rule="evenodd" clip-rule="evenodd" d="M429.02 271.483C462.816 235.896 501.563 212.005 545.197 199.71C575.135 191.268 595.312 164.135 595.312 133.897C595.312 88.0468 549.93 54.6165 504.534 67.4599C469.992 77.211 436.788 91.5881 404.96 110.641C339.412 149.845 287.535 202.179 249.316 267.63C232.932 295.699 220.098 324.466 210.761 353.918C195.227 402.997 232.225 452.812 285.169 452.812C321.048 452.812 352.452 429.108 360.85 395.291C372.475 348.482 395.134 307.183 429.02 271.483Z" fill="#E5007D"/>
<path fill-rule="evenodd" clip-rule="evenodd" d="M1004.46 766.257C980.225 811.649 946.756 847.306 904.076 873.277C885.244 884.747 865.68 893.558 845.386 899.798C814.739 909.209 793.688 936.528 793.688 967.792C793.688 1015.02 840.178 1049.68 886.783 1036.48C920.804 1026.87 953.363 1012.88 984.42 994.475C1049.79 955.773 1101.42 903.73 1139.25 838.357C1156.31 808.903 1169.48 778.388 1178.83 746.8C1193.04 698.8 1154.58 651.188 1103.22 651.188C1069.14 651.188 1039.56 672.754 1028.93 703.917C1021.73 725.072 1015.02 746.488 1004.46 766.257Z" fill="#E5007D"/>
<path fill-rule="evenodd" clip-rule="evenodd" d="M428.922 828.388C396.135 793.432 373.784 753.372 361.805 708.295C352.862 674.674 321.581 651.188 285.77 651.188C232.46 651.188 195.17 701.331 210.765 750.764C220.081 780.328 232.859 809.119 249.11 837.123C287.353 903.029 339.261 955.419 404.847 994.256C436.063 1012.75 468.593 1026.79 502.421 1036.45C548.861 1049.7 595.312 1015.22 595.312 968.273C595.312 937.336 574.699 909.706 544.164 900.845C500.903 888.303 462.468 864.18 428.922 828.388Z" fill="white"/>
<path fill-rule="evenodd" clip-rule="evenodd" d="M904.408 226.831C945.904 251.893 978.706 286.175 1002.8 329.652C1014.42 350.641 1023.23 372.68 1029.24 395.767C1037.94 429.262 1068.72 452.812 1104.22 452.812C1156.04 452.812 1193.46 404.176 1178.48 355.913C1174.18 342.058 1169.11 328.365 1163.25 314.822C1141.11 263.612 1110.39 218.236 1071.11 178.669C1031.84 139.102 986.155 107.931 934.076 85.1679C918.433 78.3464 902.507 72.537 886.312 67.777C840.282 54.2216 793.688 86.9169 793.688 133.705V134.067C793.688 164.501 814.172 191.225 844.084 200.095C865.005 206.292 885.118 215.187 904.408 226.831Z" fill="white"/>
<path d="M333.4 1505.5H273.2L207.75 1400.15L185.35 1416.25V1505.5H132.5V1255.6H185.35V1370.05C188.85 1365.15 192.35 1360.25 195.85 1355.35C199.35 1350.45 202.85 1345.55 206.35 1340.65L273.9 1255.6H332.7L245.55 1366.2L333.4 1505.5ZM469.222 1310.9C489.755 1310.9 506.205 1316.5 518.572 1327.7C530.939 1338.67 537.122 1356.4 537.122 1380.9V1505.5H484.972V1393.85C484.972 1380.08 482.522 1369.82 477.622 1363.05C472.722 1356.05 464.905 1352.55 454.172 1352.55C438.305 1352.55 427.455 1358.03 421.622 1369C415.789 1379.73 412.872 1395.25 412.872 1415.55V1505.5H360.722V1314.4H400.622L407.622 1338.9H410.422C414.622 1332.37 419.755 1327.12 425.822 1323.15C431.889 1318.95 438.655 1315.92 446.122 1314.05C453.589 1311.95 461.289 1310.9 469.222 1310.9ZM764.351 1409.6C764.351 1425.47 762.135 1439.58 757.701 1451.95C753.501 1464.32 747.318 1474.82 739.151 1483.45C731.218 1491.85 721.535 1498.27 710.101 1502.7C698.668 1506.9 685.718 1509 671.251 1509C657.951 1509 645.585 1506.9 634.151 1502.7C622.951 1498.27 613.268 1491.85 605.101 1483.45C596.935 1474.82 590.518 1464.32 585.851 1451.95C581.418 1439.58 579.201 1425.47 579.201 1409.6C579.201 1388.37 582.935 1370.52 590.401 1356.05C597.868 1341.35 608.601 1330.15 622.601 1322.45C636.601 1314.75 653.168 1310.9 672.301 1310.9C690.268 1310.9 706.135 1314.75 719.901 1322.45C733.668 1330.15 744.518 1341.35 752.451 1356.05C760.385 1370.52 764.351 1388.37 764.351 1409.6ZM632.401 1409.6C632.401 1422.2 633.685 1432.82 636.251 1441.45C639.051 1449.85 643.368 1456.27 649.201 1460.7C655.035 1464.9 662.618 1467 671.951 1467C681.285 1467 688.751 1464.9 694.351 1460.7C700.185 1456.27 704.385 1449.85 706.951 1441.45C709.751 1432.82 711.151 1422.2 711.151 1409.6C711.151 1397 709.751 1386.5 706.951 1378.1C704.385 1369.7 700.185 1363.4 694.351 1359.2C688.518 1355 680.935 1352.9 671.601 1352.9C657.835 1352.9 647.801 1357.68 641.501 1367.25C635.435 1376.58 632.401 1390.7 632.401 1409.6ZM943.064 1438.65C942.131 1434.68 940.731 1428.85 938.864 1421.15C937.231 1413.22 935.364 1404.82 933.264 1395.95C931.164 1386.85 929.181 1378.57 927.314 1371.1C925.448 1363.4 924.164 1357.8 923.464 1354.3H922.064C921.364 1357.8 920.081 1363.4 918.214 1371.1C916.581 1378.57 914.714 1386.85 912.614 1395.95C910.514 1404.82 908.531 1413.22 906.664 1421.15C904.798 1429.08 903.398 1435.15 902.464 1439.35L887.064 1505.5H831.064L776.814 1314.4H828.614L850.664 1399.1C852.298 1404.93 853.698 1411.93 854.864 1420.1C856.264 1428.27 857.548 1436.2 858.714 1443.9C859.881 1451.37 860.698 1457.32 861.164 1461.75H862.564C862.798 1458.48 863.264 1454.17 863.964 1448.8C864.664 1443.2 865.481 1437.48 866.414 1431.65C867.581 1425.82 868.514 1420.57 869.214 1415.9C870.148 1411 870.848 1407.73 871.314 1406.1L894.764 1314.4H952.164L974.564 1406.1C975.498 1409.37 976.548 1414.62 977.714 1421.85C979.114 1429.08 980.281 1436.43 981.214 1443.9C982.381 1451.37 982.964 1457.32 982.964 1461.75H984.364C984.831 1457.78 985.648 1452.07 986.814 1444.6C987.981 1436.9 989.264 1428.85 990.664 1420.45C992.298 1412.05 993.931 1404.93 995.564 1399.1L1018.31 1314.4H1069.41L1014.46 1505.5H957.764L943.064 1438.65Z" fill="white"/>
<path d="M1153.45 1314.4V1505.5H1101.3V1314.4H1153.45ZM1127.55 1239.5C1135.25 1239.5 1141.9 1241.37 1147.5 1245.1C1153.1 1248.6 1155.9 1255.25 1155.9 1265.05C1155.9 1274.62 1153.1 1281.27 1147.5 1285C1141.9 1288.73 1135.25 1290.6 1127.55 1290.6C1119.62 1290.6 1112.85 1288.73 1107.25 1285C1101.88 1281.27 1099.2 1274.62 1099.2 1265.05C1099.2 1255.25 1101.88 1248.6 1107.25 1245.1C1112.85 1241.37 1119.62 1239.5 1127.55 1239.5ZM1260.09 1314.4V1505.5H1207.94V1314.4H1260.09ZM1234.19 1239.5C1241.89 1239.5 1248.54 1241.37 1254.14 1245.1C1259.74 1248.6 1262.54 1255.25 1262.54 1265.05C1262.54 1274.62 1259.74 1281.27 1254.14 1285C1248.54 1288.73 1241.89 1290.6 1234.19 1290.6C1226.26 1290.6 1219.49 1288.73 1213.89 1285C1208.52 1281.27 1205.84 1274.62 1205.84 1265.05C1205.84 1255.25 1208.52 1248.6 1213.89 1245.1C1219.49 1241.37 1226.26 1239.5 1234.19 1239.5Z" fill="#E5007D"/>
<g clip-path="url(#clip0_2847_287)">
<path d="M227.5 1760.1L142.45 2010H84.7L0 1760.1H53.55L100.45 1908.85C101.383 1911.42 102.667 1916.2 104.3 1923.2C106.167 1929.97 108.033 1937.2 109.9 1944.9C111.767 1952.37 113.05 1958.67 113.75 1963.8C114.45 1958.67 115.617 1952.37 117.25 1944.9C119.117 1937.2 120.983 1929.97 122.85 1923.2C124.717 1916.2 126 1911.42 126.7 1908.85L173.95 1760.1H227.5ZM421.701 1914.1C421.701 1929.97 419.484 1944.08 415.051 1956.45C410.851 1968.82 404.667 1979.32 396.501 1987.95C388.567 1996.35 378.884 2002.77 367.451 2007.2C356.017 2011.4 343.067 2013.5 328.601 2013.5C315.301 2013.5 302.934 2011.4 291.501 2007.2C280.301 2002.77 270.617 1996.35 262.451 1987.95C254.284 1979.32 247.867 1968.82 243.201 1956.45C238.767 1944.08 236.551 1929.97 236.551 1914.1C236.551 1892.87 240.284 1875.02 247.751 1860.55C255.217 1845.85 265.951 1834.65 279.951 1826.95C293.951 1819.25 310.517 1815.4 329.651 1815.4C347.617 1815.4 363.484 1819.25 377.251 1826.95C391.017 1834.65 401.867 1845.85 409.801 1860.55C417.734 1875.02 421.701 1892.87 421.701 1914.1ZM289.751 1914.1C289.751 1926.7 291.034 1937.32 293.601 1945.95C296.401 1954.35 300.717 1960.77 306.551 1965.2C312.384 1969.4 319.967 1971.5 329.301 1971.5C338.634 1971.5 346.101 1969.4 351.701 1965.2C357.534 1960.77 361.734 1954.35 364.301 1945.95C367.101 1937.32 368.501 1926.7 368.501 1914.1C368.501 1901.5 367.101 1891 364.301 1882.6C361.734 1874.2 357.534 1867.9 351.701 1863.7C345.867 1859.5 338.284 1857.4 328.951 1857.4C315.184 1857.4 305.151 1862.18 298.851 1871.75C292.784 1881.08 289.751 1895.2 289.751 1914.1ZM516.95 1818.9V2010H464.8V1818.9H516.95ZM491.05 1744C498.75 1744 505.4 1745.87 511 1749.6C516.6 1753.1 519.4 1759.75 519.4 1769.55C519.4 1779.12 516.6 1785.77 511 1789.5C505.4 1793.23 498.75 1795.1 491.05 1795.1C483.117 1795.1 476.35 1793.23 470.75 1789.5C465.383 1785.77 462.7 1779.12 462.7 1769.55C462.7 1759.75 465.383 1753.1 470.75 1749.6C476.35 1745.87 483.117 1744 491.05 1744ZM649.141 2013.5C630.241 2013.5 614.141 2010.12 600.841 2003.35C587.541 1996.35 577.391 1985.62 570.391 1971.15C563.391 1956.68 559.891 1938.13 559.891 1915.5C559.891 1892.17 563.857 1873.15 571.791 1858.45C579.724 1843.75 590.691 1832.9 604.691 1825.9C618.924 1818.9 635.257 1815.4 653.691 1815.4C666.757 1815.4 678.074 1816.68 687.641 1819.25C697.441 1821.82 705.957 1824.85 713.191 1828.35L697.791 1868.6C689.624 1865.33 681.924 1862.65 674.691 1860.55C667.691 1858.45 660.691 1857.4 653.691 1857.4C644.591 1857.4 637.007 1859.62 630.941 1864.05C624.874 1868.25 620.324 1874.67 617.291 1883.3C614.491 1891.7 613.091 1902.32 613.091 1915.15C613.091 1927.75 614.607 1938.25 617.641 1946.65C620.907 1954.82 625.574 1961 631.641 1965.2C637.707 1969.17 645.057 1971.15 653.691 1971.15C664.657 1971.15 674.341 1969.75 682.741 1966.95C691.141 1963.92 699.307 1959.83 707.241 1954.7V1999.15C699.307 2004.28 690.907 2007.9 682.041 2010C673.407 2012.33 662.441 2013.5 649.141 2013.5ZM829.976 1815.4C847.709 1815.4 862.876 1818.78 875.476 1825.55C888.309 1832.32 898.226 1842.12 905.226 1854.95C912.226 1867.78 915.726 1883.53 915.726 1902.2V1927.4H792.526C792.992 1942.1 797.309 1953.65 805.476 1962.05C813.876 1970.45 825.426 1974.65 840.126 1974.65C852.492 1974.65 863.692 1973.48 873.726 1971.15C883.759 1968.58 894.142 1964.73 904.876 1959.6V1999.85C895.542 2004.52 885.626 2007.9 875.126 2010C864.859 2012.33 852.376 2013.5 837.676 2013.5C818.542 2013.5 801.626 2010 786.926 2003C772.226 1995.77 760.676 1984.92 752.276 1970.45C743.876 1955.98 739.676 1937.78 739.676 1915.85C739.676 1893.45 743.409 1874.9 750.876 1860.2C758.576 1845.27 769.192 1834.07 782.726 1826.6C796.259 1819.13 812.009 1815.4 829.976 1815.4ZM830.326 1852.5C820.292 1852.5 811.892 1855.77 805.126 1862.3C798.592 1868.83 794.742 1878.98 793.576 1892.75H866.726C866.726 1885.05 865.326 1878.17 862.526 1872.1C859.959 1866.03 855.992 1861.25 850.626 1857.75C845.259 1854.25 838.492 1852.5 830.326 1852.5Z" fill="white"/>
<path d="M1195.45 2010L1177.25 1950.5H1086.25L1068.05 2010H1011L1099.2 1759.05H1163.95L1252.5 2010H1195.45ZM1146.45 1847.95C1145.28 1843.98 1143.77 1838.97 1141.9 1832.9C1140.03 1826.83 1138.17 1820.65 1136.3 1814.35C1134.43 1808.05 1132.92 1802.57 1131.75 1797.9C1130.58 1802.57 1128.95 1808.4 1126.85 1815.4C1124.98 1822.17 1123.12 1828.7 1121.25 1835C1119.62 1841.07 1118.33 1845.38 1117.4 1847.95L1099.55 1906.05H1164.65L1146.45 1847.95ZM1377.6 2010H1263.85V1979.9L1294.3 1965.9V1804.2L1263.85 1790.2V1760.1H1377.6V1790.2L1347.15 1804.2V1965.9L1377.6 1979.9V2010Z" fill="#E5007D"/>
</g>
<defs>
<clipPath id="clip0_2847_287">
<rect width="1389" height="477" fill="white" transform="translate(0 1636)"/>
</clipPath>
</defs>
</svg>
