<svg width="1024" height="1024" viewBox="0 0 1024 1024" fill="none" xmlns="http://www.w3.org/2000/svg">
<rect width="1024" height="1024" fill="#37404C"/>
<rect x="297.983" y="106.918" width="428.035" height="428.035" rx="53.5044" fill="#37404C"/>
<path fill-rule="evenodd" clip-rule="evenodd" d="M409.07 212.175C422.174 198.378 437.196 189.115 454.114 184.348C465.721 181.075 473.544 170.555 473.544 158.831C473.544 141.055 455.949 128.093 438.348 133.073C424.956 136.854 412.082 142.428 399.742 149.815C374.328 165.015 354.215 185.305 339.397 210.682C333.044 221.564 328.068 232.717 324.449 244.136C318.426 263.165 332.77 282.479 353.297 282.479C367.208 282.479 379.384 273.289 382.64 260.177C387.147 242.029 395.932 226.017 409.07 212.175Z" fill="#E5007D"/>
<path fill-rule="evenodd" clip-rule="evenodd" d="M632.175 404.006C622.78 421.605 609.803 435.429 593.256 445.499C585.954 449.946 578.369 453.362 570.501 455.781C558.618 459.43 550.457 470.022 550.457 482.143C550.457 500.453 568.481 513.891 586.551 508.776C599.741 505.05 612.365 499.626 624.406 492.489C649.752 477.483 669.766 457.305 684.434 431.96C691.049 420.54 696.157 408.709 699.783 396.462C705.289 377.852 690.378 359.392 670.468 359.392C657.253 359.392 645.783 367.753 641.665 379.836C638.87 388.038 636.268 396.341 632.175 404.006Z" fill="#E5007D"/>
<path fill-rule="evenodd" clip-rule="evenodd" d="M409.032 428.094C396.32 414.542 387.655 399.01 383.01 381.533C379.543 368.498 367.415 359.392 353.53 359.392C332.861 359.392 318.403 378.833 324.45 397.998C328.062 409.461 333.016 420.624 339.317 431.481C354.144 457.034 374.269 477.346 399.698 492.404C411.801 499.574 424.413 505.018 437.529 508.763C455.534 513.901 473.544 500.532 473.544 482.33C473.544 470.335 465.552 459.622 453.713 456.187C436.94 451.324 422.038 441.971 409.032 428.094Z" fill="white"/>
<path fill-rule="evenodd" clip-rule="evenodd" d="M593.384 194.863C609.473 204.58 622.19 217.872 631.532 234.728C636.038 242.866 639.454 251.41 641.785 260.362C645.156 273.348 657.091 282.479 670.855 282.479C690.947 282.479 705.452 263.622 699.646 244.91C697.978 239.538 696.011 234.229 693.74 228.979C685.156 209.124 673.245 191.531 658.018 176.19C642.79 160.85 625.079 148.764 604.887 139.939C598.822 137.294 592.647 135.041 586.368 133.196C568.522 127.94 550.457 140.617 550.457 158.757V158.897C550.457 170.697 558.399 181.058 569.996 184.497C578.107 186.9 585.905 190.349 593.384 194.863Z" fill="white"/>
<path d="M372.104 690.585H348.764L323.388 649.739L314.704 655.982V690.585H294.213V593.696H314.704V638.069C316.061 636.169 317.418 634.27 318.775 632.37C320.132 630.47 321.489 628.57 322.846 626.671L349.036 593.696H371.833L338.044 636.577L372.104 690.585ZM424.764 615.136C432.725 615.136 439.103 617.307 443.898 621.65C448.693 625.902 451.09 632.777 451.09 642.276V690.585H430.871V647.297C430.871 641.959 429.921 637.979 428.021 635.355C426.121 632.641 423.091 631.284 418.929 631.284C412.778 631.284 408.571 633.41 406.309 637.662C404.048 641.824 402.917 647.84 402.917 655.71V690.585H382.697V616.493H398.167L400.881 625.992H401.967C403.595 623.459 405.585 621.423 407.938 619.886C410.29 618.257 412.913 617.081 415.808 616.357C418.703 615.543 421.688 615.136 424.764 615.136ZM539.19 653.403C539.19 659.555 538.33 665.028 536.611 669.823C534.983 674.618 532.586 678.689 529.419 682.036C526.344 685.293 522.589 687.781 518.156 689.499C513.723 691.128 508.703 691.942 503.094 691.942C497.937 691.942 493.142 691.128 488.71 689.499C484.367 687.781 480.613 685.293 477.446 682.036C474.28 678.689 471.792 674.618 469.983 669.823C468.264 665.028 467.405 659.555 467.405 653.403C467.405 645.171 468.852 638.25 471.747 632.641C474.642 626.942 478.803 622.6 484.231 619.614C489.659 616.629 496.083 615.136 503.501 615.136C510.467 615.136 516.618 616.629 521.956 619.614C527.293 622.6 531.5 626.942 534.576 632.641C537.652 638.25 539.19 645.171 539.19 653.403ZM488.031 653.403C488.031 658.288 488.529 662.405 489.524 665.752C490.609 669.009 492.283 671.497 494.545 673.215C496.806 674.844 499.746 675.658 503.365 675.658C506.984 675.658 509.879 674.844 512.05 673.215C514.312 671.497 515.94 669.009 516.935 665.752C518.021 662.405 518.563 658.288 518.563 653.403C518.563 648.518 518.021 644.447 516.935 641.19C515.94 637.934 514.312 635.491 512.05 633.863C509.788 632.234 506.848 631.42 503.229 631.42C497.892 631.42 494.002 633.275 491.559 636.984C489.207 640.602 488.031 646.076 488.031 653.403ZM608.479 664.666C608.117 663.128 607.575 660.867 606.851 657.881C606.218 654.806 605.494 651.549 604.68 648.111C603.865 644.583 603.096 641.371 602.373 638.476C601.649 635.491 601.151 633.32 600.88 631.963H600.337C600.066 633.32 599.568 635.491 598.845 638.476C598.211 641.371 597.488 644.583 596.673 648.111C595.859 651.549 595.09 654.806 594.366 657.881C593.643 660.957 593.1 663.309 592.738 664.938L586.767 690.585H565.055L544.022 616.493H564.105L572.655 649.332C573.288 651.594 573.831 654.308 574.283 657.474C574.826 660.641 575.323 663.716 575.776 666.702C576.228 669.597 576.545 671.904 576.725 673.623H577.268C577.359 672.356 577.54 670.682 577.811 668.602C578.082 666.43 578.399 664.214 578.761 661.952C579.213 659.691 579.575 657.655 579.847 655.846C580.208 653.946 580.48 652.68 580.661 652.046L589.753 616.493H612.007L620.692 652.046C621.054 653.313 621.461 655.348 621.913 658.153C622.456 660.957 622.909 663.807 623.27 666.702C623.723 669.597 623.949 671.904 623.949 673.623H624.492C624.673 672.085 624.989 669.868 625.442 666.973C625.894 663.988 626.391 660.867 626.934 657.61C627.568 654.353 628.201 651.594 628.834 649.332L637.655 616.493H657.467L636.162 690.585H614.179L608.479 664.666Z" fill="white"/>
<path d="M689.804 616.493V690.585H669.585V616.493H689.804ZM679.762 587.453C682.747 587.453 685.326 588.177 687.497 589.625C689.668 590.982 690.754 593.56 690.754 597.359C690.754 601.069 689.668 603.647 687.497 605.094C685.326 606.542 682.747 607.265 679.762 607.265C676.686 607.265 674.063 606.542 671.891 605.094C669.811 603.647 668.77 601.069 668.77 597.359C668.77 593.56 669.811 590.982 671.891 589.625C674.063 588.177 676.686 587.453 679.762 587.453ZM731.15 616.493V690.585H710.93V616.493H731.15ZM721.108 587.453C724.093 587.453 726.672 588.177 728.843 589.625C731.014 590.982 732.1 593.56 732.1 597.359C732.1 601.069 731.014 603.647 728.843 605.094C726.672 606.542 724.093 607.265 721.108 607.265C718.032 607.265 715.409 606.542 713.237 605.094C711.157 603.647 710.116 601.069 710.116 597.359C710.116 593.56 711.157 590.982 713.237 589.625C715.409 588.177 718.032 587.453 721.108 587.453Z" fill="#E5007D"/>
<g clip-path="url(#clip0_2847_288)">
<path d="M330.696 789.326L297.721 886.216H275.331L242.492 789.326H263.254L281.437 846.999C281.799 847.994 282.297 849.848 282.93 852.562C283.654 855.186 284.378 857.99 285.101 860.976C285.825 863.871 286.323 866.313 286.594 868.303C286.865 866.313 287.318 863.871 287.951 860.976C288.675 857.99 289.398 855.186 290.122 852.562C290.846 849.848 291.344 847.994 291.615 846.999L309.934 789.326H330.696ZM405.99 849.034C405.99 855.186 405.131 860.659 403.412 865.454C401.784 870.249 399.386 874.319 396.22 877.667C393.144 880.924 389.39 883.411 384.957 885.13C380.524 886.759 375.503 887.573 369.894 887.573C364.738 887.573 359.943 886.759 355.51 885.13C351.168 883.411 347.414 880.924 344.247 877.667C341.081 874.319 338.593 870.249 336.784 865.454C335.065 860.659 334.205 855.186 334.205 849.034C334.205 840.802 335.653 833.881 338.548 828.272C341.443 822.573 345.604 818.23 351.032 815.245C356.46 812.26 362.883 810.767 370.302 810.767C377.267 810.767 383.419 812.26 388.757 815.245C394.094 818.23 398.301 822.573 401.377 828.272C404.453 833.881 405.99 840.802 405.99 849.034ZM354.832 849.034C354.832 853.919 355.329 858.036 356.324 861.383C357.41 864.64 359.084 867.127 361.345 868.846C363.607 870.475 366.547 871.289 370.166 871.289C373.784 871.289 376.679 870.475 378.851 868.846C381.112 867.127 382.741 864.64 383.736 861.383C384.821 858.036 385.364 853.919 385.364 849.034C385.364 844.149 384.821 840.078 383.736 836.821C382.741 833.564 381.112 831.122 378.851 829.493C376.589 827.865 373.649 827.051 370.03 827.051C364.693 827.051 360.803 828.905 358.36 832.615C356.008 836.233 354.832 841.706 354.832 849.034ZM442.92 812.124V886.216H422.701V812.124H442.92ZM432.878 783.084C435.863 783.084 438.442 783.808 440.613 785.255C442.784 786.612 443.87 789.191 443.87 792.99C443.87 796.699 442.784 799.278 440.613 800.725C438.442 802.173 435.863 802.896 432.878 802.896C429.802 802.896 427.179 802.173 425.007 800.725C422.927 799.278 421.886 796.699 421.886 792.99C421.886 789.191 422.927 786.612 425.007 785.255C427.179 783.808 429.802 783.084 432.878 783.084ZM494.172 887.573C486.844 887.573 480.602 886.261 475.445 883.638C470.289 880.924 466.353 876.762 463.639 871.153C460.925 865.544 459.568 858.352 459.568 849.577C459.568 840.53 461.106 833.157 464.182 827.458C467.258 821.759 471.51 817.552 476.938 814.838C482.456 812.124 488.789 810.767 495.936 810.767C501.002 810.767 505.39 811.264 509.099 812.26C512.898 813.255 516.2 814.431 519.005 815.788L513.034 831.393C509.868 830.127 506.882 829.086 504.078 828.272C501.364 827.458 498.65 827.051 495.936 827.051C492.408 827.051 489.468 827.91 487.115 829.629C484.763 831.258 482.999 833.745 481.823 837.093C480.738 840.349 480.195 844.466 480.195 849.441C480.195 854.326 480.783 858.397 481.959 861.654C483.225 864.821 485.035 867.218 487.387 868.846C489.739 870.384 492.589 871.153 495.936 871.153C500.188 871.153 503.942 870.61 507.199 869.525C510.456 868.349 513.622 866.766 516.698 864.775V882.009C513.622 883.999 510.365 885.402 506.928 886.216C503.58 887.12 499.328 887.573 494.172 887.573ZM564.284 810.767C571.159 810.767 577.04 812.079 581.925 814.702C586.901 817.326 590.745 821.125 593.459 826.101C596.173 831.077 597.53 837.183 597.53 844.42V854.191H549.764C549.945 859.89 551.619 864.368 554.785 867.625C558.042 870.882 562.52 872.51 568.219 872.51C573.014 872.51 577.356 872.058 581.246 871.153C585.136 870.158 589.162 868.665 593.324 866.675V882.281C589.705 884.09 585.86 885.402 581.789 886.216C577.809 887.12 572.969 887.573 567.269 887.573C559.851 887.573 553.292 886.216 547.593 883.502C541.894 880.697 537.415 876.491 534.159 870.882C530.902 865.273 529.273 858.216 529.273 849.713C529.273 841.028 530.721 833.836 533.616 828.136C536.601 822.347 540.717 818.004 545.965 815.109C551.212 812.214 557.318 810.767 564.284 810.767ZM564.42 825.151C560.53 825.151 557.273 826.418 554.649 828.951C552.116 831.484 550.624 835.419 550.171 840.756H578.532C578.532 837.771 577.99 835.102 576.904 832.75C575.909 830.398 574.371 828.544 572.29 827.187C570.209 825.83 567.586 825.151 564.42 825.151Z" fill="white"/>
<path d="M706.022 886.216L698.966 863.147H663.684L656.628 886.216H634.509L668.705 788.919H693.809L728.141 886.216H706.022ZM687.024 823.387C686.572 821.849 685.984 819.904 685.26 817.552C684.537 815.2 683.813 812.802 683.089 810.36C682.365 807.917 681.777 805.791 681.325 803.982C680.873 805.791 680.24 808.053 679.425 810.767C678.702 813.39 677.978 815.923 677.254 818.366C676.621 820.718 676.123 822.392 675.761 823.387L668.841 845.913H694.081L687.024 823.387ZM776.644 886.216H732.542V874.546L744.348 869.118V806.425L732.542 800.997V789.326H776.644V800.997L764.839 806.425V869.118L776.644 874.546V886.216Z" fill="#E5007D"/>
</g>
<defs>
<clipPath id="clip0_2847_288">
<rect width="539.017" height="184.939" fill="white" transform="translate(242.492 741.216)"/>
</clipPath>
</defs>
</svg>
